<svg id="Calque_2" data-name="Calque 2" xmlns="http://www.w3.org/2000/svg" viewBox="0 0 92.99 61.1"><defs><style>.cls-1{fill:#213958;}.cls-2{fill:#004090;}.cls-3{fill:#d81128;}</style></defs><title>logo-dumby</title><rect class="cls-1" x="37.92" y="19.23" width="62.08" height="3.5" rx="1.62" ry="1.62" transform="translate(3.1 50.28) rotate(-40.9)"/><rect class="cls-1" x="-7.01" y="19.23" width="62.08" height="3.5" rx="1.62" ry="1.62" transform="translate(28.45 52.57) rotate(-139.1)"/><rect class="cls-2" x="28.11" y="34.24" width="73.26" height="4.13" rx="1.91" ry="1.91" transform="translate(-7.97 51.25) rotate(-40.9)"/><rect class="cls-3" x="-8.38" y="34.26" width="73.31" height="4.13" rx="1.91" ry="1.91" transform="translate(25.85 82.29) rotate(-139.1)"/><path class="cls-2" d="M45.72,30.14l-2.78-3.47a1,1,0,0,1,0-1.25L45.72,22a1,1,0,0,1,1.56,0l2.78,3.47a1,1,0,0,1,0,1.25l-2.78,3.47A1,1,0,0,1,45.72,30.14Z"/></svg>