<svg viewBox="0 0 92.99 61.1">
  <defs>
    <style>
      .cls-1{fill:#213958;}.cls-2{fill:#004090;}.cls-3{fill:#d81128;}
    </style>
  </defs>
  <rect class="cls-1" x="37.92" y="19.23" width="62.08" height="3.5" rx="1.62" ry="1.62" transform="rotate(-40.9 68.97 20.983)"/>
  <rect class="cls-1" x="-7.01" y="19.23" width="62.08" height="3.5" rx="1.62" ry="1.62" transform="rotate(-139.1 24.026 20.98)"/>
  <rect class="cls-2" x="28.11" y="34.24" width="73.26" height="4.13" rx="1.91" ry="1.91" transform="rotate(-40.9 64.735 36.312)"/>
  <rect class="cls-3" x="-8.38" y="34.26" width="73.31" height="4.13" rx="1.91" ry="1.91" transform="rotate(-139.1 28.268 36.325)"/>
  <path class="cls-2" d="M45.72 30.14l-2.78-3.47a1 1 0 0 1 0-1.25L45.72 22a1 1 0 0 1 1.56 0l2.78 3.47a1 1 0 0 1 0 1.25l-2.78 3.47a1 1 0 0 1-1.56-.05z"/>
</svg>
